<svg width="35" height="36" viewBox="0 0 35 36" fill="none" xmlns="http://www.w3.org/2000/svg">
<path d="M5.83331 28.2083V25.2916H8.74998V15.0833C8.74998 13.0659 9.35762 11.2795 10.5729 9.72392C11.7882 8.14406 13.368 7.11107 15.3125 6.62496V5.60413C15.3125 4.99649 15.5191 4.48607 15.9323 4.07287C16.3698 3.63538 16.8923 3.41663 17.5 3.41663C18.1076 3.41663 18.618 3.63538 19.0312 4.07287C19.4687 4.48607 19.6875 4.99649 19.6875 5.60413V6.62496C21.6319 7.11107 23.2118 8.14406 24.4271 9.72392C25.6423 11.2795 26.25 13.0659 26.25 15.0833V25.2916H29.1666V28.2083H5.83331ZM17.5 32.5833C16.6979 32.5833 16.0052 32.3038 15.4219 31.7448C14.8628 31.1614 14.5833 30.4687 14.5833 29.6666H20.4166C20.4166 30.4687 20.125 31.1614 19.5416 31.7448C18.9826 32.3038 18.3021 32.5833 17.5 32.5833ZM11.6666 25.2916H23.3333V15.0833C23.3333 13.4791 22.7621 12.1059 21.6198 10.9635C20.4774 9.82114 19.1041 9.24996 17.5 9.24996C15.8958 9.24996 14.5225 9.82114 13.3802 10.9635C12.2378 12.1059 11.6666 13.4791 11.6666 15.0833V25.2916Z" fill="#1D1B20"/>
</svg>
