<svg width="28" height="28" viewBox="0 0 28 28" fill="none" xmlns="http://www.w3.org/2000/svg">
<path d="M14 25.6666C13.7278 25.6666 13.4944 25.5888 13.3 25.4333C13.1056 25.2777 12.9597 25.0735 12.8625 24.8208C12.4931 23.7319 12.0264 22.711 11.4625 21.7583C10.918 20.8055 10.15 19.6874 9.15833 18.4041C8.16666 17.1208 7.35972 15.8958 6.73749 14.7291C6.13472 13.5624 5.83333 12.1527 5.83333 10.4999C5.83333 8.22492 6.62083 6.29992 8.19583 4.72492C9.79027 3.13047 11.725 2.33325 14 2.33325C16.275 2.33325 18.2 3.13047 19.775 4.72492C21.3694 6.29992 22.1667 8.22492 22.1667 10.4999C22.1667 12.2694 21.8264 13.7471 21.1458 14.9333C20.4847 16.0999 19.7167 17.2569 18.8417 18.4041C17.7917 19.8041 16.9944 20.9708 16.45 21.9041C15.925 22.818 15.4875 23.7902 15.1375 24.8208C15.0403 25.093 14.8847 25.3069 14.6708 25.4624C14.4764 25.5985 14.2528 25.6666 14 25.6666ZM14 13.4166C14.8167 13.4166 15.5069 13.1346 16.0708 12.5708C16.6347 12.0069 16.9167 11.3166 16.9167 10.4999C16.9167 9.68325 16.6347 8.99297 16.0708 8.42908C15.5069 7.8652 14.8167 7.58325 14 7.58325C13.1833 7.58325 12.4931 7.8652 11.9292 8.42908C11.3653 8.99297 11.0833 9.68325 11.0833 10.4999C11.0833 11.3166 11.3653 12.0069 11.9292 12.5708C12.4931 13.1346 13.1833 13.4166 14 13.4166Z" fill="#1D192B"/>
</svg>
