<svg width="38" height="38" viewBox="0 0 38 38" fill="none" xmlns="http://www.w3.org/2000/svg">
<path d="M35.6666 18.9999C35.6666 28.2047 28.2047 35.6666 19 35.6666M35.6666 18.9999C35.6666 9.79517 28.2047 2.33325 19 2.33325M35.6666 18.9999H2.33331M19 35.6666C9.79523 35.6666 2.33331 28.2047 2.33331 18.9999M19 35.6666C23.1688 31.1027 25.5379 25.1799 25.6666 18.9999C25.5379 12.82 23.1688 6.89717 19 2.33325M19 35.6666C14.8312 31.1027 12.4621 25.1799 12.3333 18.9999C12.4621 12.82 14.8312 6.89717 19 2.33325M2.33331 18.9999C2.33331 9.79517 9.79523 2.33325 19 2.33325" stroke="#15110E" stroke-width="4" stroke-linecap="round" stroke-linejoin="round"/>
</svg>
