<svg width="48" height="48" viewBox="0 0 48 48" fill="none" xmlns="http://www.w3.org/2000/svg">
<path d="M23.5 44L22.827 45.3406L23.5 45.6784L24.173 45.3406L23.5 44ZM23.5 4L24.2754 2.71596L23.5 2.24771L22.7246 2.71596L23.5 4ZM30.3789 23.9965L31.3754 25.1177L33.6177 23.1246L32.6211 22.0034L30.3789 23.9965ZM23.5 14L24.6211 13.0034L23.5 11.7422L22.3789 13.0034L23.5 14ZM14.3789 22.0034L13.3823 23.1246L15.6246 25.1177L16.6211 23.9965L14.3789 22.0034ZM22 34C22 34.8284 22.6716 35.5 23.5 35.5C24.3284 35.5 25 34.8284 25 34H22ZM26.8391 29.4499L27.7889 30.6108L30.1108 28.7111L29.1609 27.5501L26.8391 29.4499ZM23.5 23L24.6609 22.0502C24.376 21.702 23.9499 21.5 23.5 21.5C23.0501 21.5 22.6239 21.702 22.339 22.0502L23.5 23ZM17.8391 27.5501L16.8892 28.7111L19.2111 30.6108L20.1609 29.4499L17.8391 27.5501ZM34 35.0782L32.7438 34.2586L34 35.0782ZM13 35.0782L11.7438 35.8979L13 35.0782ZM11 23.5C11 18.5924 14.1375 14.0861 17.5598 10.6694C19.2429 8.98908 20.9315 7.6357 22.2011 6.702C22.8347 6.23611 23.3606 5.87715 23.7249 5.63662C23.907 5.51642 24.0484 5.42596 24.1425 5.36668C24.1895 5.33704 24.2247 5.31522 24.2471 5.30138C24.2583 5.29446 24.2664 5.28954 24.2711 5.28665C24.2735 5.2852 24.2751 5.28425 24.2758 5.28382C24.2761 5.2836 24.2763 5.28351 24.2762 5.28354C24.2762 5.28356 24.276 5.28369 24.276 5.28369C24.2757 5.28385 24.2754 5.28404 23.5 4C22.7246 2.71596 22.7242 2.71621 22.7237 2.7165C22.7235 2.71664 22.723 2.71695 22.7225 2.71723C22.7216 2.71778 22.7205 2.71846 22.7191 2.71927C22.7165 2.7209 22.7129 2.72304 22.7086 2.72569C22.6999 2.73101 22.6878 2.73838 22.6726 2.7478C22.642 2.76663 22.5986 2.79362 22.5431 2.82861C22.432 2.89857 22.2727 3.00053 22.072 3.13307C21.6706 3.39803 21.1028 3.78586 20.4239 4.28514C19.0685 5.28181 17.2571 6.73236 15.4402 8.54634C11.8625 12.1182 8 17.3619 8 23.5H11ZM23.5 4C22.7246 5.28404 22.7243 5.28385 22.724 5.28369C22.724 5.28369 22.7238 5.28356 22.7238 5.28354C22.7237 5.28351 22.7239 5.2836 22.7242 5.28382C22.7249 5.28425 22.7265 5.2852 22.7289 5.28665C22.7336 5.28954 22.7417 5.29446 22.7529 5.30138C22.7753 5.31522 22.8105 5.33704 22.8575 5.36668C22.9516 5.42596 23.093 5.51642 23.2751 5.63662C23.6394 5.87715 24.1653 6.23611 24.7989 6.702C26.0685 7.6357 27.7571 8.98908 29.4402 10.6694C32.8625 14.0861 36 18.5924 36 23.5H39C39 17.3619 35.1375 12.1182 31.5598 8.54634C29.7429 6.73236 27.9315 5.28181 26.5761 4.28514C25.8972 3.78586 25.3294 3.39803 24.928 3.13307C24.7273 3.00053 24.568 2.89857 24.4569 2.82861C24.4014 2.79362 24.358 2.76663 24.3274 2.7478C24.3122 2.73838 24.3001 2.73101 24.2914 2.72569C24.2871 2.72304 24.2835 2.7209 24.2809 2.71927C24.2795 2.71846 24.2784 2.71778 24.2775 2.71723C24.277 2.71695 24.2765 2.71664 24.2763 2.7165C24.2758 2.71621 24.2754 2.71596 23.5 4ZM32.6211 22.0034L24.6211 13.0034L22.3789 14.9965L30.3789 23.9965L32.6211 22.0034ZM22.3789 13.0034L14.3789 22.0034L16.6211 23.9965L24.6211 14.9965L22.3789 13.0034ZM25 34C25 33.9878 25 33.9756 25 33.9634C25 33.9512 25 33.9389 25 33.9267C25 33.9145 25 33.9023 25 33.89C25 33.8778 25 33.8656 25 33.8533C25 33.8411 25 33.8288 25 33.8166C25 33.8043 25 33.7921 25 33.7798C25 33.7676 25 33.7553 25 33.743C25 33.7308 25 33.7185 25 33.7062C25 33.6939 25 33.6816 25 33.6693C25 33.6571 25 33.6448 25 33.6325C25 33.6202 25 33.6079 25 33.5956C25 33.5833 25 33.5709 25 33.5586C25 33.5463 25 33.534 25 33.5217C25 33.5093 25 33.497 25 33.4847C25 33.4723 25 33.46 25 33.4477C25 33.4353 25 33.423 25 33.4106C25 33.3983 25 33.3859 25 33.3735C25 33.3612 25 33.3488 25 33.3365C25 33.3241 25 33.3117 25 33.2993C25 33.2869 25 33.2746 25 33.2622C25 33.2498 25 33.2374 25 33.225C25 33.2126 25 33.2002 25 33.1878C25 33.1754 25 33.163 25 33.1506C25 33.1382 25 33.1257 25 33.1133C25 33.1009 25 33.0885 25 33.076C25 33.0636 25 33.0512 25 33.0387C25 33.0263 25 33.0138 25 33.0014C25 32.9889 25 32.9765 25 32.964C25 32.9516 25 32.9391 25 32.9266C25 32.9142 25 32.9017 25 32.8892C25 32.8768 25 32.8643 25 32.8518C25 32.8393 25 32.8268 25 32.8143C25 32.8018 25 32.7894 25 32.7769C25 32.7644 25 32.7519 25 32.7393C25 32.7268 25 32.7143 25 32.7018C25 32.6893 25 32.6768 25 32.6642C25 32.6517 25 32.6392 25 32.6267C25 32.6141 25 32.6016 25 32.5891C25 32.5765 25 32.564 25 32.5514C25 32.5389 25 32.5263 25 32.5138C25 32.5012 25 32.4886 25 32.4761C25 32.4635 25 32.4509 25 32.4384C25 32.4258 25 32.4132 25 32.4006C25 32.3881 25 32.3755 25 32.3629C25 32.3503 25 32.3377 25 32.3251C25 32.3125 25 32.2999 25 32.2873C25 32.2747 25 32.2621 25 32.2495C25 32.2369 25 32.2242 25 32.2116C25 32.199 25 32.1864 25 32.1738C25 32.1611 25 32.1485 25 32.1359C25 32.1232 25 32.1106 25 32.0979C25 32.0853 25 32.0726 25 32.06C25 32.0473 25 32.0347 25 32.022C25 32.0094 25 31.9967 25 31.984C25 31.9714 25 31.9587 25 31.946C25 31.9334 25 31.9207 25 31.908C25 31.8953 25 31.8826 25 31.8699C25 31.8573 25 31.8446 25 31.8319C25 31.8192 25 31.8065 25 31.7938C25 31.7811 25 31.7684 25 31.7556C25 31.7429 25 31.7302 25 31.7175C25 31.7048 25 31.6921 25 31.6793C25 31.6666 25 31.6539 25 31.6411C25 31.6284 25 31.6157 25 31.6029C25 31.5902 25 31.5775 25 31.5647C25 31.552 25 31.5392 25 31.5265C25 31.5137 25 31.5009 25 31.4882C25 31.4754 25 31.4627 25 31.4499C25 31.4371 25 31.4243 25 31.4116C25 31.3988 25 31.386 25 31.3732C25 31.3605 25 31.3477 25 31.3349C25 31.3221 25 31.3093 25 31.2965C25 31.2837 25 31.2709 25 31.2581C25 31.2453 25 31.2325 25 31.2197C25 31.2069 25 31.1941 25 31.1812C25 31.1684 25 31.1556 25 31.1428C25 31.13 25 31.1171 25 31.1043C25 31.0915 25 31.0786 25 31.0658C25 31.053 25 31.0401 25 31.0273C25 31.0144 25 31.0016 25 30.9887C25 30.9759 25 30.963 25 30.9502C25 30.9373 25 30.9245 25 30.9116C25 30.8987 25 30.8859 25 30.873C25 30.8601 25 30.8473 25 30.8344C25 30.8215 25 30.8086 25 30.7957C25 30.7829 25 30.77 25 30.7571C25 30.7442 25 30.7313 25 30.7184C25 30.7055 25 30.6926 25 30.6797C25 30.6668 25 30.6539 25 30.641C25 30.6281 25 30.6152 25 30.6023C25 30.5894 25 30.5764 25 30.5635C25 30.5506 25 30.5377 25 30.5247C25 30.5118 25 30.4989 25 30.486C25 30.473 25 30.4601 25 30.4471C25 30.4342 25 30.4213 25 30.4083C25 30.3954 25 30.3824 25 30.3695C25 30.3565 25 30.3436 25 30.3306C25 30.3177 25 30.3047 25 30.2917C25 30.2788 25 30.2658 25 30.2528C25 30.2399 25 30.2269 25 30.2139C25 30.201 25 30.188 25 30.175C25 30.162 25 30.149 25 30.1361C25 30.1231 25 30.1101 25 30.0971C25 30.0841 25 30.0711 25 30.0581C25 30.0451 25 30.0321 25 30.0191C25 30.0061 25 29.9931 25 29.9801C25 29.9671 25 29.9541 25 29.941C25 29.928 25 29.915 25 29.902C25 29.889 25 29.876 25 29.8629C25 29.8499 25 29.8369 25 29.8238C25 29.8108 25 29.7978 25 29.7847C25 29.7717 25 29.7587 25 29.7456C25 29.7326 25 29.7195 25 29.7065C25 29.6935 25 29.6804 25 29.6673C25 29.6543 25 29.6412 25 29.6282C25 29.6151 25 29.6021 25 29.589C25 29.5759 25 29.5629 25 29.5498C25 29.5367 25 29.5237 25 29.5106C25 29.4975 25 29.4844 25 29.4714C25 29.4583 25 29.4452 25 29.4321C25 29.419 25 29.406 25 29.3929C25 29.3798 25 29.3667 25 29.3536C25 29.3405 25 29.3274 25 29.3143C25 29.3012 25 29.2881 25 29.275C25 29.2619 25 29.2488 25 29.2357C25 29.2226 25 29.2095 25 29.1964C25 29.1832 25 29.1701 25 29.157C25 29.1439 25 29.1308 25 29.1176C25 29.1045 25 29.0914 25 29.0783C25 29.0651 25 29.052 25 29.0389C25 29.0257 25 29.0126 25 28.9995C25 28.9863 25 28.9732 25 28.9601C25 28.9469 25 28.9338 25 28.9206C25 28.9075 25 28.8943 25 28.8812C25 28.868 25 28.8549 25 28.8417C25 28.8286 25 28.8154 25 28.8022C25 28.7891 25 28.7759 25 28.7628C25 28.7496 25 28.7364 25 28.7233C25 28.7101 25 28.6969 25 28.6837C25 28.6706 25 28.6574 25 28.6442C25 28.631 25 28.6179 25 28.6047C25 28.5915 25 28.5783 25 28.5651C25 28.5519 25 28.5387 25 28.5256C25 28.5124 25 28.4992 25 28.486C25 28.4728 25 28.4596 25 28.4464C25 28.4332 25 28.42 25 28.4068C25 28.3936 25 28.3804 25 28.3672C25 28.354 25 28.3408 25 28.3275C25 28.3143 25 28.3011 25 28.2879C25 28.2747 25 28.2615 25 28.2483C25 28.235 25 28.2218 25 28.2086C25 28.1954 25 28.1821 25 28.1689C25 28.1557 25 28.1425 25 28.1292C25 28.116 25 28.1028 25 28.0895C25 28.0763 25 28.0631 25 28.0498C25 28.0366 25 28.0233 25 28.0101C25 27.9969 25 27.9836 25 27.9704C25 27.9571 25 27.9439 25 27.9306C25 27.9174 25 27.9041 25 27.8909C25 27.8776 25 27.8644 25 27.8511C25 27.8378 25 27.8246 25 27.8113C25 27.7981 25 27.7848 25 27.7715C25 27.7583 25 27.745 25 27.7317C25 27.7185 25 27.7052 25 27.6919C25 27.6787 25 27.6654 25 27.6521C25 27.6388 25 27.6256 25 27.6123C25 27.599 25 27.5857 25 27.5724C25 27.5592 25 27.5459 25 27.5326C25 27.5193 25 27.506 25 27.4927C25 27.4795 25 27.4662 25 27.4529C25 27.4396 25 27.4263 25 27.413C25 27.3997 25 27.3864 25 27.3731C25 27.3598 25 27.3465 25 27.3332C25 27.3199 25 27.3066 25 27.2933C25 27.28 25 27.2667 25 27.2534C25 27.2401 25 27.2268 25 27.2135C25 27.2002 25 27.1868 25 27.1735C25 27.1602 25 27.1469 25 27.1336C25 27.1203 25 27.107 25 27.0936C25 27.0803 25 27.067 25 27.0537C25 27.0404 25 27.027 25 27.0137C25 27.0004 25 26.9871 25 26.9737C25 26.9604 25 26.9471 25 26.9337C25 26.9204 25 26.9071 25 26.8938C25 26.8804 25 26.8671 25 26.8538C25 26.8404 25 26.8271 25 26.8137C25 26.8004 25 26.7871 25 26.7737C25 26.7604 25 26.747 25 26.7337C25 26.7204 25 26.707 25 26.6937C25 26.6803 25 26.667 25 26.6536C25 26.6403 25 26.6269 25 26.6136C25 26.6002 25 26.5869 25 26.5735C25 26.5602 25 26.5468 25 26.5335C25 26.5201 25 26.5068 25 26.4934C25 26.48 25 26.4667 25 26.4533C25 26.44 25 26.4266 25 26.4132C25 26.3999 25 26.3865 25 26.3731C25 26.3598 25 26.3464 25 26.3331C25 26.3197 25 26.3063 25 26.2929C25 26.2796 25 26.2662 25 26.2528C25 26.2395 25 26.2261 25 26.2127C25 26.1994 25 26.186 25 26.1726C25 26.1592 25 26.1459 25 26.1325C25 26.1191 25 26.1057 25 26.0923C25 26.079 25 26.0656 25 26.0522C25 26.0388 25 26.0254 25 26.0121C25 25.9987 25 25.9853 25 25.9719C25 25.9585 25 25.9451 25 25.9318C25 25.9184 25 25.905 25 25.8916C25 25.8782 25 25.8648 25 25.8514C25 25.838 25 25.8246 25 25.8113C25 25.7979 25 25.7845 25 25.7711C25 25.7577 25 25.7443 25 25.7309C25 25.7175 25 25.7041 25 25.6907C25 25.6773 25 25.6639 25 25.6505C25 25.6371 25 25.6237 25 25.6103C25 25.5969 25 25.5835 25 25.5701C25 25.5567 25 25.5433 25 25.5299C25 25.5165 25 25.5031 25 25.4897C25 25.4763 25 25.4629 25 25.4495C25 25.4361 25 25.4227 25 25.4093C25 25.3959 25 25.3825 25 25.3691C25 25.3556 25 25.3422 25 25.3288C25 25.3154 25 25.302 25 25.2886C25 25.2752 25 25.2618 25 25.2484C25 25.235 25 25.2215 25 25.2081C25 25.1947 25 25.1813 25 25.1679C25 25.1545 25 25.1411 25 25.1277C25 25.1142 25 25.1008 25 25.0874C25 25.074 25 25.0606 25 25.0472C25 25.0337 25 25.0203 25 25.0069C25 24.9935 25 24.9801 25 24.9667C25 24.9532 25 24.9398 25 24.9264C25 24.913 25 24.8996 25 24.8861C25 24.8727 25 24.8593 25 24.8459C25 24.8325 25 24.819 25 24.8056C25 24.7922 25 24.7788 25 24.7653C25 24.7519 25 24.7385 25 24.7251C25 24.7117 25 24.6982 25 24.6848C25 24.6714 25 24.658 25 24.6445C25 24.6311 25 24.6177 25 24.6043C25 24.5908 25 24.5774 25 24.564C25 24.5506 25 24.5371 25 24.5237C25 24.5103 25 24.4968 25 24.4834C25 24.47 25 24.4566 25 24.4431C25 24.4297 25 24.4163 25 24.4029C25 24.3894 25 24.376 25 24.3626C25 24.3491 25 24.3357 25 24.3223C25 24.3089 25 24.2954 25 24.282C25 24.2686 25 24.2552 25 24.2417C25 24.2283 25 24.2149 25 24.2014C25 24.188 25 24.1746 25 24.1611C25 24.1477 25 24.1343 25 24.1209C25 24.1074 25 24.094 25 24.0806C25 24.0671 25 24.0537 25 24.0403C25 24.0269 25 24.0134 25 24C25 23.9866 25 23.9731 25 23.9597C25 23.9463 25 23.9329 25 23.9194C25 23.906 25 23.8926 25 23.8791C25 23.8657 25 23.8523 25 23.8388C25 23.8254 25 23.812 25 23.7986C25 23.7851 25 23.7717 25 23.7583C25 23.7448 25 23.7314 25 23.718C25 23.7046 25 23.6911 25 23.6777C25 23.6643 25 23.6508 25 23.6374C25 23.624 25 23.6106 25 23.5971C25 23.5837 25 23.5703 25 23.5569C25 23.5434 25 23.53 25 23.5166C25 23.5031 25 23.4897 25 23.4763C25 23.4629 25 23.4494 25 23.436C25 23.4226 25 23.4092 25 23.3957C25 23.3823 25 23.3689 25 23.3555C25 23.342 25 23.3286 25 23.3152C25 23.3018 25 23.2883 25 23.2749C25 23.2615 25 23.2481 25 23.2347C25 23.2212 25 23.2078 25 23.1944C25 23.181 25 23.1675 25 23.1541C25 23.1407 25 23.1273 25 23.1139C25 23.1004 25 23.087 25 23.0736C25 23.0602 25 23.0468 25 23.0333C25 23.0199 25 23.0065 25 22.9931C25 22.9797 25 22.9663 25 22.9528C25 22.9394 25 22.926 25 22.9126C25 22.8992 25 22.8858 25 22.8723C25 22.8589 25 22.8455 25 22.8321C25 22.8187 25 22.8053 25 22.7919C25 22.7785 25 22.765 25 22.7516C25 22.7382 25 22.7248 25 22.7114C25 22.698 25 22.6846 25 22.6712C25 22.6578 25 22.6444 25 22.6309C25 22.6175 25 22.6041 25 22.5907C25 22.5773 25 22.5639 25 22.5505C25 22.5371 25 22.5237 25 22.5103C25 22.4969 25 22.4835 25 22.4701C25 22.4567 25 22.4433 25 22.4299C25 22.4165 25 22.4031 25 22.3897C25 22.3763 25 22.3629 25 22.3495C25 22.3361 25 22.3227 25 22.3093C25 22.2959 25 22.2825 25 22.2691C25 22.2557 25 22.2423 25 22.2289C25 22.2155 25 22.2021 25 22.1887C25 22.1754 25 22.162 25 22.1486C25 22.1352 25 22.1218 25 22.1084C25 22.095 25 22.0816 25 22.0682C25 22.0549 25 22.0415 25 22.0281C25 22.0147 25 22.0013 25 21.9879C25 21.9746 25 21.9612 25 21.9478C25 21.9344 25 21.921 25 21.9077C25 21.8943 25 21.8809 25 21.8675C25 21.8541 25 21.8408 25 21.8274C25 21.814 25 21.8006 25 21.7873C25 21.7739 25 21.7605 25 21.7472C25 21.7338 25 21.7204 25 21.707C25 21.6937 25 21.6803 25 21.6669C25 21.6536 25 21.6402 25 21.6269C25 21.6135 25 21.6001 25 21.5868C25 21.5734 25 21.56 25 21.5467C25 21.5333 25 21.52 25 21.5066C25 21.4932 25 21.4799 25 21.4665C25 21.4532 25 21.4398 25 21.4265C25 21.4131 25 21.3998 25 21.3864C25 21.3731 25 21.3597 25 21.3464C25 21.333 25 21.3197 25 21.3063C25 21.293 25 21.2796 25 21.2663C25 21.253 25 21.2396 25 21.2263C25 21.2129 25 21.1996 25 21.1863C25 21.1729 25 21.1596 25 21.1462C25 21.1329 25 21.1196 25 21.1062C25 21.0929 25 21.0796 25 21.0663C25 21.0529 25 21.0396 25 21.0263C25 21.0129 25 20.9996 25 20.9863C25 20.973 25 20.9596 25 20.9463C25 20.933 25 20.9197 25 20.9064C25 20.893 25 20.8797 25 20.8664C25 20.8531 25 20.8398 25 20.8265C25 20.8132 25 20.7998 25 20.7865C25 20.7732 25 20.7599 25 20.7466C25 20.7333 25 20.72 25 20.7067C25 20.6934 25 20.6801 25 20.6668C25 20.6535 25 20.6402 25 20.6269C25 20.6136 25 20.6003 25 20.587C25 20.5737 25 20.5604 25 20.5471C25 20.5338 25 20.5205 25 20.5073C25 20.494 25 20.4807 25 20.4674C25 20.4541 25 20.4408 25 20.4276C25 20.4143 25 20.401 25 20.3877C25 20.3744 25 20.3612 25 20.3479C25 20.3346 25 20.3213 25 20.3081C25 20.2948 25 20.2815 25 20.2683C25 20.255 25 20.2417 25 20.2285C25 20.2152 25 20.2019 25 20.1887C25 20.1754 25 20.1622 25 20.1489C25 20.1356 25 20.1224 25 20.1091C25 20.0959 25 20.0826 25 20.0694C25 20.0561 25 20.0429 25 20.0296C25 20.0164 25 20.0031 25 19.9899C25 19.9767 25 19.9634 25 19.9502C25 19.9369 25 19.9237 25 19.9105C25 19.8972 25 19.884 25 19.8708C25 19.8575 25 19.8443 25 19.8311C25 19.8179 25 19.8046 25 19.7914C25 19.7782 25 19.765 25 19.7517C25 19.7385 25 19.7253 25 19.7121C25 19.6989 25 19.6857 25 19.6725C25 19.6592 25 19.646 25 19.6328C25 19.6196 25 19.6064 25 19.5932C25 19.58 25 19.5668 25 19.5536C25 19.5404 25 19.5272 25 19.514C25 19.5008 25 19.4876 25 19.4744C25 19.4613 25 19.4481 25 19.4349C25 19.4217 25 19.4085 25 19.3953C25 19.3821 25 19.369 25 19.3558C25 19.3426 25 19.3294 25 19.3163C25 19.3031 25 19.2899 25 19.2767C25 19.2636 25 19.2504 25 19.2372C25 19.2241 25 19.2109 25 19.1978C25 19.1846 25 19.1714 25 19.1583C25 19.1451 25 19.132 25 19.1188C25 19.1057 25 19.0925 25 19.0794C25 19.0662 25 19.0531 25 19.0399C25 19.0268 25 19.0137 25 19.0005C25 18.9874 25 18.9743 25 18.9611C25 18.948 25 18.9349 25 18.9217C25 18.9086 25 18.8955 25 18.8824C25 18.8692 25 18.8561 25 18.843C25 18.8299 25 18.8168 25 18.8036C25 18.7905 25 18.7774 25 18.7643C25 18.7512 25 18.7381 25 18.725C25 18.7119 25 18.6988 25 18.6857C25 18.6726 25 18.6595 25 18.6464C25 18.6333 25 18.6202 25 18.6071C25 18.594 25 18.581 25 18.5679C25 18.5548 25 18.5417 25 18.5286C25 18.5156 25 18.5025 25 18.4894C25 18.4763 25 18.4633 25 18.4502C25 18.4371 25 18.4241 25 18.411C25 18.3979 25 18.3849 25 18.3718C25 18.3588 25 18.3457 25 18.3326C25 18.3196 25 18.3065 25 18.2935C25 18.2805 25 18.2674 25 18.2544C25 18.2413 25 18.2283 25 18.2153C25 18.2022 25 18.1892 25 18.1762C25 18.1631 25 18.1501 25 18.1371C25 18.124 25 18.111 25 18.098C25 18.085 25 18.072 25 18.0589C25 18.0459 25 18.0329 25 18.0199C25 18.0069 25 17.9939 25 17.9809C25 17.9679 25 17.9549 25 17.9419C25 17.9289 25 17.9159 25 17.9029C25 17.8899 25 17.8769 25 17.8639C25 17.851 25 17.838 25 17.825C25 17.812 25 17.799 25 17.7861C25 17.7731 25 17.7601 25 17.7472C25 17.7342 25 17.7212 25 17.7083C25 17.6953 25 17.6823 25 17.6694C25 17.6564 25 17.6435 25 17.6305C25 17.6176 25 17.6046 25 17.5917C25 17.5787 25 17.5658 25 17.5528C25 17.5399 25 17.527 25 17.514C25 17.5011 25 17.4882 25 17.4753C25 17.4623 25 17.4494 25 17.4365C25 17.4236 25 17.4106 25 17.3977C25 17.3848 25 17.3719 25 17.359C25 17.3461 25 17.3332 25 17.3203C25 17.3074 25 17.2945 25 17.2816C25 17.2687 25 17.2558 25 17.2429C25 17.23 25 17.2171 25 17.2043C25 17.1914 25 17.1785 25 17.1656C25 17.1527 25 17.1399 25 17.127C25 17.1141 25 17.1013 25 17.0884C25 17.0755 25 17.0627 25 17.0498C25 17.037 25 17.0241 25 17.0113C25 16.9984 25 16.9856 25 16.9727C25 16.9599 25 16.947 25 16.9342C25 16.9214 25 16.9085 25 16.8957C25 16.8829 25 16.87 25 16.8572C25 16.8444 25 16.8316 25 16.8188C25 16.8059 25 16.7931 25 16.7803C25 16.7675 25 16.7547 25 16.7419C25 16.7291 25 16.7163 25 16.7035C25 16.6907 25 16.6779 25 16.6651C25 16.6523 25 16.6395 25 16.6268C25 16.614 25 16.6012 25 16.5884C25 16.5757 25 16.5629 25 16.5501C25 16.5373 25 16.5246 25 16.5118C25 16.4991 25 16.4863 25 16.4735C25 16.4608 25 16.448 25 16.4353C25 16.4225 25 16.4098 25 16.3971C25 16.3843 25 16.3716 25 16.3588C25 16.3461 25 16.3334 25 16.3207C25 16.3079 25 16.2952 25 16.2825C25 16.2698 25 16.2571 25 16.2444C25 16.2316 25 16.2189 25 16.2062C25 16.1935 25 16.1808 25 16.1681C25 16.1554 25 16.1427 25 16.1301C25 16.1174 25 16.1047 25 16.092C25 16.0793 25 16.0666 25 16.054C25 16.0413 25 16.0286 25 16.016C25 16.0033 25 15.9906 25 15.978C25 15.9653 25 15.9527 25 15.94C25 15.9274 25 15.9147 25 15.9021C25 15.8894 25 15.8768 25 15.8641C25 15.8515 25 15.8389 25 15.8262C25 15.8136 25 15.801 25 15.7884C25 15.7758 25 15.7631 25 15.7505C25 15.7379 25 15.7253 25 15.7127C25 15.7001 25 15.6875 25 15.6749C25 15.6623 25 15.6497 25 15.6371C25 15.6245 25 15.6119 25 15.5994C25 15.5868 25 15.5742 25 15.5616C25 15.5491 25 15.5365 25 15.5239C25 15.5114 25 15.4988 25 15.4862C25 15.4737 25 15.4611 25 15.4486C25 15.436 25 15.4235 25 15.4109C25 15.3984 25 15.3859 25 15.3733C25 15.3608 25 15.3483 25 15.3358C25 15.3232 25 15.3107 25 15.2982C25 15.2857 25 15.2732 25 15.2607C25 15.2481 25 15.2356 25 15.2231C25 15.2106 25 15.1982 25 15.1857C25 15.1732 25 15.1607 25 15.1482C25 15.1357 25 15.1232 25 15.1108C25 15.0983 25 15.0858 25 15.0734C25 15.0609 25 15.0484 25 15.036C25 15.0235 25 15.0111 25 14.9986C25 14.9862 25 14.9737 25 14.9613C25 14.9488 25 14.9364 25 14.924C25 14.9115 25 14.8991 25 14.8867C25 14.8743 25 14.8618 25 14.8494C25 14.837 25 14.8246 25 14.8122C25 14.7998 25 14.7874 25 14.775C25 14.7626 25 14.7502 25 14.7378C25 14.7254 25 14.7131 25 14.7007C25 14.6883 25 14.6759 25 14.6635C25 14.6512 25 14.6388 25 14.6265C25 14.6141 25 14.6017 25 14.5894C25 14.577 25 14.5647 25 14.5523C25 14.54 25 14.5277 25 14.5153C25 14.503 25 14.4907 25 14.4783C25 14.466 25 14.4537 25 14.4414C25 14.4291 25 14.4167 25 14.4044C25 14.3921 25 14.3798 25 14.3675C25 14.3552 25 14.3429 25 14.3306C25 14.3184 25 14.3061 25 14.2938C25 14.2815 25 14.2692 25 14.257C25 14.2447 25 14.2324 25 14.2202C25 14.2079 25 14.1957 25 14.1834C25 14.1712 25 14.1589 25 14.1467C25 14.1344 25 14.1222 25 14.11C25 14.0977 25 14.0855 25 14.0733C25 14.0611 25 14.0488 25 14.0366C25 14.0244 25 14.0122 25 14H22C22 14.0122 22 14.0244 22 14.0366C22 14.0488 22 14.0611 22 14.0733C22 14.0855 22 14.0977 22 14.11C22 14.1222 22 14.1344 22 14.1467C22 14.1589 22 14.1712 22 14.1834C22 14.1957 22 14.2079 22 14.2202C22 14.2324 22 14.2447 22 14.257C22 14.2692 22 14.2815 22 14.2938C22 14.3061 22 14.3184 22 14.3306C22 14.3429 22 14.3552 22 14.3675C22 14.3798 22 14.3921 22 14.4044C22 14.4167 22 14.4291 22 14.4414C22 14.4537 22 14.466 22 14.4783C22 14.4907 22 14.503 22 14.5153C22 14.5277 22 14.54 22 14.5523C22 14.5647 22 14.577 22 14.5894C22 14.6017 22 14.6141 22 14.6265C22 14.6388 22 14.6512 22 14.6635C22 14.6759 22 14.6883 22 14.7007C22 14.7131 22 14.7254 22 14.7378C22 14.7502 22 14.7626 22 14.775C22 14.7874 22 14.7998 22 14.8122C22 14.8246 22 14.837 22 14.8494C22 14.8618 22 14.8743 22 14.8867C22 14.8991 22 14.9115 22 14.924C22 14.9364 22 14.9488 22 14.9613C22 14.9737 22 14.9862 22 14.9986C22 15.0111 22 15.0235 22 15.036C22 15.0484 22 15.0609 22 15.0734C22 15.0858 22 15.0983 22 15.1108C22 15.1232 22 15.1357 22 15.1482C22 15.1607 22 15.1732 22 15.1857C22 15.1982 22 15.2106 22 15.2231C22 15.2356 22 15.2481 22 15.2607C22 15.2732 22 15.2857 22 15.2982C22 15.3107 22 15.3232 22 15.3358C22 15.3483 22 15.3608 22 15.3733C22 15.3859 22 15.3984 22 15.4109C22 15.4235 22 15.436 22 15.4486C22 15.4611 22 15.4737 22 15.4862C22 15.4988 22 15.5114 22 15.5239C22 15.5365 22 15.5491 22 15.5616C22 15.5742 22 15.5868 22 15.5994C22 15.6119 22 15.6245 22 15.6371C22 15.6497 22 15.6623 22 15.6749C22 15.6875 22 15.7001 22 15.7127C22 15.7253 22 15.7379 22 15.7505C22 15.7631 22 15.7758 22 15.7884C22 15.801 22 15.8136 22 15.8262C22 15.8389 22 15.8515 22 15.8641C22 15.8768 22 15.8894 22 15.9021C22 15.9147 22 15.9274 22 15.94C22 15.9527 22 15.9653 22 15.978C22 15.9906 22 16.0033 22 16.016C22 16.0286 22 16.0413 22 16.054C22 16.0666 22 16.0793 22 16.092C22 16.1047 22 16.1174 22 16.1301C22 16.1427 22 16.1554 22 16.1681C22 16.1808 22 16.1935 22 16.2062C22 16.2189 22 16.2316 22 16.2444C22 16.2571 22 16.2698 22 16.2825C22 16.2952 22 16.3079 22 16.3207C22 16.3334 22 16.3461 22 16.3588C22 16.3716 22 16.3843 22 16.3971C22 16.4098 22 16.4225 22 16.4353C22 16.448 22 16.4608 22 16.4735C22 16.4863 22 16.4991 22 16.5118C22 16.5246 22 16.5373 22 16.5501C22 16.5629 22 16.5757 22 16.5884C22 16.6012 22 16.614 22 16.6268C22 16.6395 22 16.6523 22 16.6651C22 16.6779 22 16.6907 22 16.7035C22 16.7163 22 16.7291 22 16.7419C22 16.7547 22 16.7675 22 16.7803C22 16.7931 22 16.8059 22 16.8188C22 16.8316 22 16.8444 22 16.8572C22 16.87 22 16.8829 22 16.8957C22 16.9085 22 16.9214 22 16.9342C22 16.947 22 16.9599 22 16.9727C22 16.9856 22 16.9984 22 17.0113C22 17.0241 22 17.037 22 17.0498C22 17.0627 22 17.0755 22 17.0884C22 17.1013 22 17.1141 22 17.127C22 17.1399 22 17.1527 22 17.1656C22 17.1785 22 17.1914 22 17.2043C22 17.2171 22 17.23 22 17.2429C22 17.2558 22 17.2687 22 17.2816C22 17.2945 22 17.3074 22 17.3203C22 17.3332 22 17.3461 22 17.359C22 17.3719 22 17.3848 22 17.3977C22 17.4106 22 17.4236 22 17.4365C22 17.4494 22 17.4623 22 17.4753C22 17.4882 22 17.5011 22 17.514C22 17.527 22 17.5399 22 17.5528C22 17.5658 22 17.5787 22 17.5917C22 17.6046 22 17.6176 22 17.6305C22 17.6435 22 17.6564 22 17.6694C22 17.6823 22 17.6953 22 17.7083C22 17.7212 22 17.7342 22 17.7472C22 17.7601 22 17.7731 22 17.7861C22 17.799 22 17.812 22 17.825C22 17.838 22 17.851 22 17.8639C22 17.8769 22 17.8899 22 17.9029C22 17.9159 22 17.9289 22 17.9419C22 17.9549 22 17.9679 22 17.9809C22 17.9939 22 18.0069 22 18.0199C22 18.0329 22 18.0459 22 18.0589C22 18.072 22 18.085 22 18.098C22 18.111 22 18.124 22 18.1371C22 18.1501 22 18.1631 22 18.1762C22 18.1892 22 18.2022 22 18.2153C22 18.2283 22 18.2413 22 18.2544C22 18.2674 22 18.2805 22 18.2935C22 18.3065 22 18.3196 22 18.3326C22 18.3457 22 18.3588 22 18.3718C22 18.3849 22 18.3979 22 18.411C22 18.4241 22 18.4371 22 18.4502C22 18.4633 22 18.4763 22 18.4894C22 18.5025 22 18.5156 22 18.5286C22 18.5417 22 18.5548 22 18.5679C22 18.581 22 18.594 22 18.6071C22 18.6202 22 18.6333 22 18.6464C22 18.6595 22 18.6726 22 18.6857C22 18.6988 22 18.7119 22 18.725C22 18.7381 22 18.7512 22 18.7643C22 18.7774 22 18.7905 22 18.8036C22 18.8168 22 18.8299 22 18.843C22 18.8561 22 18.8692 22 18.8824C22 18.8955 22 18.9086 22 18.9217C22 18.9349 22 18.948 22 18.9611C22 18.9743 22 18.9874 22 19.0005C22 19.0137 22 19.0268 22 19.0399C22 19.0531 22 19.0662 22 19.0794C22 19.0925 22 19.1057 22 19.1188C22 19.132 22 19.1451 22 19.1583C22 19.1714 22 19.1846 22 19.1978C22 19.2109 22 19.2241 22 19.2372C22 19.2504 22 19.2636 22 19.2767C22 19.2899 22 19.3031 22 19.3163C22 19.3294 22 19.3426 22 19.3558C22 19.369 22 19.3821 22 19.3953C22 19.4085 22 19.4217 22 19.4349C22 19.4481 22 19.4613 22 19.4744C22 19.4876 22 19.5008 22 19.514C22 19.5272 22 19.5404 22 19.5536C22 19.5668 22 19.58 22 19.5932C22 19.6064 22 19.6196 22 19.6328C22 19.646 22 19.6592 22 19.6725C22 19.6857 22 19.6989 22 19.7121C22 19.7253 22 19.7385 22 19.7517C22 19.765 22 19.7782 22 19.7914C22 19.8046 22 19.8179 22 19.8311C22 19.8443 22 19.8575 22 19.8708C22 19.884 22 19.8972 22 19.9105C22 19.9237 22 19.9369 22 19.9502C22 19.9634 22 19.9767 22 19.9899C22 20.0031 22 20.0164 22 20.0296C22 20.0429 22 20.0561 22 20.0694C22 20.0826 22 20.0959 22 20.1091C22 20.1224 22 20.1356 22 20.1489C22 20.1622 22 20.1754 22 20.1887C22 20.2019 22 20.2152 22 20.2285C22 20.2417 22 20.255 22 20.2683C22 20.2815 22 20.2948 22 20.3081C22 20.3213 22 20.3346 22 20.3479C22 20.3612 22 20.3744 22 20.3877C22 20.401 22 20.4143 22 20.4276C22 20.4408 22 20.4541 22 20.4674C22 20.4807 22 20.494 22 20.5073C22 20.5205 22 20.5338 22 20.5471C22 20.5604 22 20.5737 22 20.587C22 20.6003 22 20.6136 22 20.6269C22 20.6402 22 20.6535 22 20.6668C22 20.6801 22 20.6934 22 20.7067C22 20.72 22 20.7333 22 20.7466C22 20.7599 22 20.7732 22 20.7865C22 20.7998 22 20.8132 22 20.8265C22 20.8398 22 20.8531 22 20.8664C22 20.8797 22 20.893 22 20.9064C22 20.9197 22 20.933 22 20.9463C22 20.9596 22 20.973 22 20.9863C22 20.9996 22 21.0129 22 21.0263C22 21.0396 22 21.0529 22 21.0663C22 21.0796 22 21.0929 22 21.1062C22 21.1196 22 21.1329 22 21.1462C22 21.1596 22 21.1729 22 21.1863C22 21.1996 22 21.2129 22 21.2263C22 21.2396 22 21.253 22 21.2663C22 21.2796 22 21.293 22 21.3063C22 21.3197 22 21.333 22 21.3464C22 21.3597 22 21.3731 22 21.3864C22 21.3998 22 21.4131 22 21.4265C22 21.4398 22 21.4532 22 21.4665C22 21.4799 22 21.4932 22 21.5066C22 21.52 22 21.5333 22 21.5467C22 21.56 22 21.5734 22 21.5868C22 21.6001 22 21.6135 22 21.6269C22 21.6402 22 21.6536 22 21.6669C22 21.6803 22 21.6937 22 21.707C22 21.7204 22 21.7338 22 21.7472C22 21.7605 22 21.7739 22 21.7873C22 21.8006 22 21.814 22 21.8274C22 21.8408 22 21.8541 22 21.8675C22 21.8809 22 21.8943 22 21.9077C22 21.921 22 21.9344 22 21.9478C22 21.9612 22 21.9746 22 21.9879C22 22.0013 22 22.0147 22 22.0281C22 22.0415 22 22.0549 22 22.0682C22 22.0816 22 22.095 22 22.1084C22 22.1218 22 22.1352 22 22.1486C22 22.162 22 22.1754 22 22.1887C22 22.2021 22 22.2155 22 22.2289C22 22.2423 22 22.2557 22 22.2691C22 22.2825 22 22.2959 22 22.3093C22 22.3227 22 22.3361 22 22.3495C22 22.3629 22 22.3763 22 22.3897C22 22.4031 22 22.4165 22 22.4299C22 22.4433 22 22.4567 22 22.4701C22 22.4835 22 22.4969 22 22.5103C22 22.5237 22 22.5371 22 22.5505C22 22.5639 22 22.5773 22 22.5907C22 22.6041 22 22.6175 22 22.6309C22 22.6444 22 22.6578 22 22.6712C22 22.6846 22 22.698 22 22.7114C22 22.7248 22 22.7382 22 22.7516C22 22.765 22 22.7785 22 22.7919C22 22.8053 22 22.8187 22 22.8321C22 22.8455 22 22.8589 22 22.8723C22 22.8858 22 22.8992 22 22.9126C22 22.926 22 22.9394 22 22.9528C22 22.9663 22 22.9797 22 22.9931C22 23.0065 22 23.0199 22 23.0333C22 23.0468 22 23.0602 22 23.0736C22 23.087 22 23.1004 22 23.1139C22 23.1273 22 23.1407 22 23.1541C22 23.1675 22 23.181 22 23.1944C22 23.2078 22 23.2212 22 23.2347C22 23.2481 22 23.2615 22 23.2749C22 23.2883 22 23.3018 22 23.3152C22 23.3286 22 23.342 22 23.3555C22 23.3689 22 23.3823 22 23.3957C22 23.4092 22 23.4226 22 23.436C22 23.4494 22 23.4629 22 23.4763C22 23.4897 22 23.5031 22 23.5166C22 23.53 22 23.5434 22 23.5569C22 23.5703 22 23.5837 22 23.5971C22 23.6106 22 23.624 22 23.6374C22 23.6508 22 23.6643 22 23.6777C22 23.6911 22 23.7046 22 23.718C22 23.7314 22 23.7448 22 23.7583C22 23.7717 22 23.7851 22 23.7986C22 23.812 22 23.8254 22 23.8388C22 23.8523 22 23.8657 22 23.8791C22 23.8926 22 23.906 22 23.9194C22 23.9329 22 23.9463 22 23.9597C22 23.9731 22 23.9866 22 24C22 24.0134 22 24.0269 22 24.0403C22 24.0537 22 24.0671 22 24.0806C22 24.094 22 24.1074 22 24.1209C22 24.1343 22 24.1477 22 24.1611C22 24.1746 22 24.188 22 24.2014C22 24.2149 22 24.2283 22 24.2417C22 24.2552 22 24.2686 22 24.282C22 24.2954 22 24.3089 22 24.3223C22 24.3357 22 24.3491 22 24.3626C22 24.376 22 24.3894 22 24.4029C22 24.4163 22 24.4297 22 24.4431C22 24.4566 22 24.47 22 24.4834C22 24.4968 22 24.5103 22 24.5237C22 24.5371 22 24.5506 22 24.564C22 24.5774 22 24.5908 22 24.6043C22 24.6177 22 24.6311 22 24.6445C22 24.658 22 24.6714 22 24.6848C22 24.6982 22 24.7117 22 24.7251C22 24.7385 22 24.7519 22 24.7653C22 24.7788 22 24.7922 22 24.8056C22 24.819 22 24.8325 22 24.8459C22 24.8593 22 24.8727 22 24.8861C22 24.8996 22 24.913 22 24.9264C22 24.9398 22 24.9532 22 24.9667C22 24.9801 22 24.9935 22 25.0069C22 25.0203 22 25.0337 22 25.0472C22 25.0606 22 25.074 22 25.0874C22 25.1008 22 25.1142 22 25.1277C22 25.1411 22 25.1545 22 25.1679C22 25.1813 22 25.1947 22 25.2081C22 25.2215 22 25.235 22 25.2484C22 25.2618 22 25.2752 22 25.2886C22 25.302 22 25.3154 22 25.3288C22 25.3422 22 25.3556 22 25.3691C22 25.3825 22 25.3959 22 25.4093C22 25.4227 22 25.4361 22 25.4495C22 25.4629 22 25.4763 22 25.4897C22 25.5031 22 25.5165 22 25.5299C22 25.5433 22 25.5567 22 25.5701C22 25.5835 22 25.5969 22 25.6103C22 25.6237 22 25.6371 22 25.6505C22 25.6639 22 25.6773 22 25.6907C22 25.7041 22 25.7175 22 25.7309C22 25.7443 22 25.7577 22 25.7711C22 25.7845 22 25.7979 22 25.8113C22 25.8246 22 25.838 22 25.8514C22 25.8648 22 25.8782 22 25.8916C22 25.905 22 25.9184 22 25.9318C22 25.9451 22 25.9585 22 25.9719C22 25.9853 22 25.9987 22 26.0121C22 26.0254 22 26.0388 22 26.0522C22 26.0656 22 26.079 22 26.0923C22 26.1057 22 26.1191 22 26.1325C22 26.1459 22 26.1592 22 26.1726C22 26.186 22 26.1994 22 26.2127C22 26.2261 22 26.2395 22 26.2528C22 26.2662 22 26.2796 22 26.2929C22 26.3063 22 26.3197 22 26.3331C22 26.3464 22 26.3598 22 26.3731C22 26.3865 22 26.3999 22 26.4132C22 26.4266 22 26.44 22 26.4533C22 26.4667 22 26.48 22 26.4934C22 26.5068 22 26.5201 22 26.5335C22 26.5468 22 26.5602 22 26.5735C22 26.5869 22 26.6002 22 26.6136C22 26.6269 22 26.6403 22 26.6536C22 26.667 22 26.6803 22 26.6937C22 26.707 22 26.7204 22 26.7337C22 26.747 22 26.7604 22 26.7737C22 26.7871 22 26.8004 22 26.8137C22 26.8271 22 26.8404 22 26.8538C22 26.8671 22 26.8804 22 26.8938C22 26.9071 22 26.9204 22 26.9337C22 26.9471 22 26.9604 22 26.9737C22 26.9871 22 27.0004 22 27.0137C22 27.027 22 27.0404 22 27.0537C22 27.067 22 27.0803 22 27.0936C22 27.107 22 27.1203 22 27.1336C22 27.1469 22 27.1602 22 27.1735C22 27.1868 22 27.2002 22 27.2135C22 27.2268 22 27.2401 22 27.2534C22 27.2667 22 27.28 22 27.2933C22 27.3066 22 27.3199 22 27.3332C22 27.3465 22 27.3598 22 27.3731C22 27.3864 22 27.3997 22 27.413C22 27.4263 22 27.4396 22 27.4529C22 27.4662 22 27.4795 22 27.4927C22 27.506 22 27.5193 22 27.5326C22 27.5459 22 27.5592 22 27.5724C22 27.5857 22 27.599 22 27.6123C22 27.6256 22 27.6388 22 27.6521C22 27.6654 22 27.6787 22 27.6919C22 27.7052 22 27.7185 22 27.7317C22 27.745 22 27.7583 22 27.7715C22 27.7848 22 27.7981 22 27.8113C22 27.8246 22 27.8378 22 27.8511C22 27.8644 22 27.8776 22 27.8909C22 27.9041 22 27.9174 22 27.9306C22 27.9439 22 27.9571 22 27.9704C22 27.9836 22 27.9969 22 28.0101C22 28.0233 22 28.0366 22 28.0498C22 28.0631 22 28.0763 22 28.0895C22 28.1028 22 28.116 22 28.1292C22 28.1425 22 28.1557 22 28.1689C22 28.1821 22 28.1954 22 28.2086C22 28.2218 22 28.235 22 28.2483C22 28.2615 22 28.2747 22 28.2879C22 28.3011 22 28.3143 22 28.3275C22 28.3408 22 28.354 22 28.3672C22 28.3804 22 28.3936 22 28.4068C22 28.42 22 28.4332 22 28.4464C22 28.4596 22 28.4728 22 28.486C22 28.4992 22 28.5124 22 28.5256C22 28.5387 22 28.5519 22 28.5651C22 28.5783 22 28.5915 22 28.6047C22 28.6179 22 28.631 22 28.6442C22 28.6574 22 28.6706 22 28.6837C22 28.6969 22 28.7101 22 28.7233C22 28.7364 22 28.7496 22 28.7628C22 28.7759 22 28.7891 22 28.8022C22 28.8154 22 28.8286 22 28.8417C22 28.8549 22 28.868 22 28.8812C22 28.8943 22 28.9075 22 28.9206C22 28.9338 22 28.9469 22 28.9601C22 28.9732 22 28.9863 22 28.9995C22 29.0126 22 29.0257 22 29.0389C22 29.052 22 29.0651 22 29.0783C22 29.0914 22 29.1045 22 29.1176C22 29.1308 22 29.1439 22 29.157C22 29.1701 22 29.1832 22 29.1964C22 29.2095 22 29.2226 22 29.2357C22 29.2488 22 29.2619 22 29.275C22 29.2881 22 29.3012 22 29.3143C22 29.3274 22 29.3405 22 29.3536C22 29.3667 22 29.3798 22 29.3929C22 29.406 22 29.419 22 29.4321C22 29.4452 22 29.4583 22 29.4714C22 29.4844 22 29.4975 22 29.5106C22 29.5237 22 29.5367 22 29.5498C22 29.5629 22 29.5759 22 29.589C22 29.6021 22 29.6151 22 29.6282C22 29.6412 22 29.6543 22 29.6673C22 29.6804 22 29.6935 22 29.7065C22 29.7195 22 29.7326 22 29.7456C22 29.7587 22 29.7717 22 29.7847C22 29.7978 22 29.8108 22 29.8238C22 29.8369 22 29.8499 22 29.8629C22 29.876 22 29.889 22 29.902C22 29.915 22 29.928 22 29.941C22 29.9541 22 29.9671 22 29.9801C22 29.9931 22 30.0061 22 30.0191C22 30.0321 22 30.0451 22 30.0581C22 30.0711 22 30.0841 22 30.0971C22 30.1101 22 30.1231 22 30.1361C22 30.149 22 30.162 22 30.175C22 30.188 22 30.201 22 30.2139C22 30.2269 22 30.2399 22 30.2528C22 30.2658 22 30.2788 22 30.2917C22 30.3047 22 30.3177 22 30.3306C22 30.3436 22 30.3565 22 30.3695C22 30.3824 22 30.3954 22 30.4083C22 30.4213 22 30.4342 22 30.4471C22 30.4601 22 30.473 22 30.486C22 30.4989 22 30.5118 22 30.5247C22 30.5377 22 30.5506 22 30.5635C22 30.5764 22 30.5894 22 30.6023C22 30.6152 22 30.6281 22 30.641C22 30.6539 22 30.6668 22 30.6797C22 30.6926 22 30.7055 22 30.7184C22 30.7313 22 30.7442 22 30.7571C22 30.77 22 30.7829 22 30.7957C22 30.8086 22 30.8215 22 30.8344C22 30.8473 22 30.8601 22 30.873C22 30.8859 22 30.8987 22 30.9116C22 30.9245 22 30.9373 22 30.9502C22 30.963 22 30.9759 22 30.9887C22 31.0016 22 31.0144 22 31.0273C22 31.0401 22 31.053 22 31.0658C22 31.0786 22 31.0915 22 31.1043C22 31.1171 22 31.13 22 31.1428C22 31.1556 22 31.1684 22 31.1812C22 31.1941 22 31.2069 22 31.2197C22 31.2325 22 31.2453 22 31.2581C22 31.2709 22 31.2837 22 31.2965C22 31.3093 22 31.3221 22 31.3349C22 31.3477 22 31.3605 22 31.3732C22 31.386 22 31.3988 22 31.4116C22 31.4243 22 31.4371 22 31.4499C22 31.4627 22 31.4754 22 31.4882C22 31.5009 22 31.5137 22 31.5265C22 31.5392 22 31.552 22 31.5647C22 31.5775 22 31.5902 22 31.6029C22 31.6157 22 31.6284 22 31.6411C22 31.6539 22 31.6666 22 31.6793C22 31.6921 22 31.7048 22 31.7175C22 31.7302 22 31.7429 22 31.7556C22 31.7684 22 31.7811 22 31.7938C22 31.8065 22 31.8192 22 31.8319C22 31.8446 22 31.8573 22 31.8699C22 31.8826 22 31.8953 22 31.908C22 31.9207 22 31.9334 22 31.946C22 31.9587 22 31.9714 22 31.984C22 31.9967 22 32.0094 22 32.022C22 32.0347 22 32.0473 22 32.06C22 32.0726 22 32.0853 22 32.0979C22 32.1106 22 32.1232 22 32.1359C22 32.1485 22 32.1611 22 32.1738C22 32.1864 22 32.199 22 32.2116C22 32.2242 22 32.2369 22 32.2495C22 32.2621 22 32.2747 22 32.2873C22 32.2999 22 32.3125 22 32.3251C22 32.3377 22 32.3503 22 32.3629C22 32.3755 22 32.3881 22 32.4006C22 32.4132 22 32.4258 22 32.4384C22 32.4509 22 32.4635 22 32.4761C22 32.4886 22 32.5012 22 32.5138C22 32.5263 22 32.5389 22 32.5514C22 32.564 22 32.5765 22 32.5891C22 32.6016 22 32.6141 22 32.6267C22 32.6392 22 32.6517 22 32.6642C22 32.6768 22 32.6893 22 32.7018C22 32.7143 22 32.7268 22 32.7393C22 32.7519 22 32.7644 22 32.7769C22 32.7894 22 32.8018 22 32.8143C22 32.8268 22 32.8393 22 32.8518C22 32.8643 22 32.8768 22 32.8892C22 32.9017 22 32.9142 22 32.9266C22 32.9391 22 32.9516 22 32.964C22 32.9765 22 32.9889 22 33.0014C22 33.0138 22 33.0263 22 33.0387C22 33.0512 22 33.0636 22 33.076C22 33.0885 22 33.1009 22 33.1133C22 33.1257 22 33.1382 22 33.1506C22 33.163 22 33.1754 22 33.1878C22 33.2002 22 33.2126 22 33.225C22 33.2374 22 33.2498 22 33.2622C22 33.2746 22 33.2869 22 33.2993C22 33.3117 22 33.3241 22 33.3365C22 33.3488 22 33.3612 22 33.3735C22 33.3859 22 33.3983 22 33.4106C22 33.423 22 33.4353 22 33.4477C22 33.46 22 33.4723 22 33.4847C22 33.497 22 33.5093 22 33.5217C22 33.534 22 33.5463 22 33.5586C22 33.5709 22 33.5833 22 33.5956C22 33.6079 22 33.6202 22 33.6325C22 33.6448 22 33.6571 22 33.6693C22 33.6816 22 33.6939 22 33.7062C22 33.7185 22 33.7308 22 33.743C22 33.7553 22 33.7676 22 33.7798C22 33.7921 22 33.8043 22 33.8166C22 33.8288 22 33.8411 22 33.8533C22 33.8656 22 33.8778 22 33.89C22 33.9023 22 33.9145 22 33.9267C22 33.9389 22 33.9512 22 33.9634C22 33.9756 22 33.9878 22 34H25ZM29.1609 27.5501L24.6609 22.0502L22.339 23.9499L26.8391 29.4499L29.1609 27.5501ZM22.339 22.0502L17.8391 27.5501L20.1609 29.4499L24.6609 23.9499L22.339 22.0502ZM36 23.5C36 27.1299 34.5675 31.4634 32.7438 34.2586L35.2562 35.8979C37.3698 32.6587 39 27.7619 39 23.5H36ZM32.7438 34.2586C31.1207 36.7461 28.6683 38.8479 26.5524 40.3525C25.5053 41.0972 24.5642 41.679 23.8874 42.0733C23.5495 42.2702 23.2787 42.4196 23.095 42.5185C23.0032 42.5679 22.9333 42.6046 22.8878 42.6282C22.865 42.64 22.8484 42.6486 22.8381 42.6538C22.833 42.6564 22.8295 42.6582 22.8276 42.6591C22.8267 42.6596 22.8262 42.6599 22.8261 42.6599C22.826 42.6599 22.8261 42.6599 22.8262 42.6598C22.8263 42.6598 22.8265 42.6597 22.8266 42.6597C22.8268 42.6596 22.827 42.6594 23.5 44C24.173 45.3406 24.1733 45.3404 24.1736 45.3403C24.1738 45.3402 24.1741 45.34 24.1744 45.3399C24.175 45.3396 24.1757 45.3392 24.1765 45.3388C24.178 45.338 24.18 45.337 24.1825 45.3358C24.1873 45.3333 24.1938 45.33 24.202 45.3259C24.2183 45.3175 24.2411 45.3058 24.2702 45.2907C24.3283 45.2605 24.4114 45.2169 24.5167 45.1602C24.7274 45.0468 25.0279 44.8809 25.3976 44.6655C26.1361 44.2352 27.1559 43.6046 28.291 42.7974C30.5395 41.1984 33.3371 38.8392 35.2562 35.8979L32.7438 34.2586ZM23.5 44C24.173 42.6594 24.1732 42.6596 24.1734 42.6597C24.1735 42.6597 24.1737 42.6598 24.1738 42.6598C24.1739 42.6599 24.174 42.6599 24.1739 42.6599C24.1738 42.6599 24.1733 42.6596 24.1724 42.6591C24.1705 42.6582 24.167 42.6564 24.1619 42.6538C24.1516 42.6486 24.135 42.64 24.1122 42.6282C24.0667 42.6046 23.9968 42.5679 23.905 42.5185C23.7213 42.4196 23.4505 42.2702 23.1126 42.0733C22.4358 41.679 21.4947 41.0972 20.4476 40.3525C18.3317 38.8479 15.8793 36.7461 14.2562 34.2586L11.7438 35.8979C13.6629 38.8392 16.4605 41.1984 18.709 42.7974C19.8441 43.6046 20.8639 44.2352 21.6024 44.6655C21.9721 44.8809 22.2726 45.0468 22.4833 45.1602C22.5886 45.2169 22.6717 45.2605 22.7298 45.2907C22.7589 45.3058 22.7817 45.3175 22.798 45.3259C22.8062 45.33 22.8127 45.3333 22.8175 45.3358C22.82 45.337 22.822 45.338 22.8235 45.3388C22.8243 45.3392 22.825 45.3396 22.8256 45.3399C22.8259 45.34 22.8262 45.3402 22.8264 45.3403C22.8267 45.3404 22.827 45.3406 23.5 44ZM14.2562 34.2586C12.4325 31.4634 11 27.1299 11 23.5H8C8 27.7619 9.63025 32.6587 11.7438 35.8979L14.2562 34.2586Z" fill="#15110E"/>
</svg>
