<svg width="21" height="31" viewBox="0 0 21 31" fill="none" xmlns="http://www.w3.org/2000/svg">
<path d="M10.5 30.0834C10.1597 30.0834 9.86808 29.9862 9.62502 29.7917C9.38197 29.5973 9.19967 29.3421 9.07815 29.0261C8.61634 27.665 8.03301 26.389 7.32815 25.198C6.64759 24.007 5.68752 22.6095 4.44794 21.0053C3.20835 19.4011 2.19967 17.8699 1.4219 16.4115C0.668423 14.9532 0.291687 13.1911 0.291687 11.1251C0.291687 8.28133 1.27606 5.87508 3.24481 3.90633C5.23787 1.91328 7.65627 0.916748 10.5 0.916748C13.3438 0.916748 15.75 1.91328 17.7188 3.90633C19.7118 5.87508 20.7084 8.28133 20.7084 11.1251C20.7084 13.3369 20.283 15.1841 19.4323 16.6667C18.6059 18.1251 17.6459 19.5713 16.5521 21.0053C15.2396 22.7553 14.2431 24.2136 13.5625 25.3803C12.9063 26.5226 12.3594 27.7379 11.9219 29.0261C11.8004 29.3664 11.6059 29.6338 11.3386 29.8282C11.0955 29.9983 10.816 30.0834 10.5 30.0834ZM10.5 14.7709C11.5209 14.7709 12.3837 14.4185 13.0886 13.7136C13.7934 13.0088 14.1459 12.1459 14.1459 11.1251C14.1459 10.1042 13.7934 9.2414 13.0886 8.53654C12.3837 7.83168 11.5209 7.47925 10.5 7.47925C9.47919 7.47925 8.61634 7.83168 7.91148 8.53654C7.20662 9.2414 6.85419 10.1042 6.85419 11.1251C6.85419 12.1459 7.20662 13.0088 7.91148 13.7136C8.61634 14.4185 9.47919 14.7709 10.5 14.7709Z" fill="#15110E"/>
</svg>
