<svg width="36" height="35" viewBox="0 0 36 35" fill="none" xmlns="http://www.w3.org/2000/svg">
<path d="M29.0833 30.625L19.8958 21.4375C19.1667 22.0208 18.3281 22.4826 17.3802 22.8229C16.4323 23.1632 15.4236 23.3333 14.3542 23.3333C11.7049 23.3333 9.46267 22.4158 7.6276 20.5807C5.79253 18.7457 4.875 16.5035 4.875 13.8542C4.875 11.2049 5.79253 8.96267 7.6276 7.1276C9.46267 5.29253 11.7049 4.375 14.3542 4.375C17.0035 4.375 19.2457 5.29253 21.0807 7.1276C22.9158 8.96267 23.8333 11.2049 23.8333 13.8542C23.8333 14.9236 23.6632 15.9323 23.3229 16.8802C22.9826 17.8281 22.5208 18.6667 21.9375 19.3958L31.125 28.5833L29.0833 30.625ZM14.3542 20.4167C16.1771 20.4167 17.7266 19.7786 19.0026 18.5026C20.2786 17.2266 20.9167 15.6771 20.9167 13.8542C20.9167 12.0312 20.2786 10.4818 19.0026 9.20573C17.7266 7.92969 16.1771 7.29167 14.3542 7.29167C12.5312 7.29167 10.9818 7.92969 9.70573 9.20573C8.42969 10.4818 7.79167 12.0312 7.79167 13.8542C7.79167 15.6771 8.42969 17.2266 9.70573 18.5026C10.9818 19.7786 12.5312 20.4167 14.3542 20.4167Z" fill="#1D1B20"/>
</svg>
